<?xml version="1.0" encoding="utf-8"?>
<!-- Generator: Adobe Illustrator 16.0.0, SVG Export Plug-In . SVG Version: 6.00 Build 0)  -->
<!DOCTYPE svg PUBLIC "-//W3C//DTD SVG 1.1//EN" "http://www.w3.org/Graphics/SVG/1.1/DTD/svg11.dtd">
<svg version="1.1" id="Capa_1" xmlns="http://www.w3.org/2000/svg" xmlns:xlink="http://www.w3.org/1999/xlink" x="0px" y="0px"
	 width="32px" height="32px" viewBox="0 0 32 32" enable-background="new 0 0 32 32" xml:space="preserve">
<g>
	<path fill="#FFD878" d="M29,16c0-7.18-5.82-13-13-13C8.82,3,3,8.82,3,16c0,7.18,5.82,13,13,13C23.18,29,29,23.18,29,16"/>
	<path fill="#75EA9C" d="M13,23.5c0-3.038-2.462-5.5-5.5-5.5S2,20.462,2,23.5S4.462,29,7.5,29S13,26.538,13,23.5"/>
	<path fill="#75EA9C" d="M30,23.5c0-3.038-2.462-5.5-5.5-5.5S19,20.462,19,23.5s2.462,5.5,5.5,5.5S30,26.538,30,23.5"/>
	<path fill="#4D5152" d="M24.503,17.999c-0.646,0-1.264,0.117-1.84,0.322l-1.27-2.752L22.796,13H25.5c0.276,0,0.5-0.224,0.5-0.5
		S25.776,12,25.5,12H19c-0.276,0-0.5,0.224-0.5,0.5S18.724,13,19,13h2.658l-1.091,2H10.448l1.429-5H14c0.276,0,0.5-0.224,0.5-0.5
		S14.276,9,14,9h-2.5c-0.223,0-0.419,0.148-0.48,0.362l-2.496,8.735c-0.331-0.062-0.672-0.098-1.021-0.098
		c-3.041,0-5.505,2.462-5.505,5.497c0,3.036,2.464,5.497,5.505,5.497c3.04,0,5.504-2.461,5.504-5.497
		c0-2.337-1.463-4.328-3.522-5.124l0.473-1.656l6.164,7.112l0.06,0.044l0.079,0.066l0.017,0.004l0.218,0.057L16.499,24H16.5h2.531
		c0.255,2.8,2.604,4.993,5.472,4.993c3.036,0,5.497-2.461,5.497-5.497C30,20.461,27.539,17.999,24.503,17.999 M12.001,23.505
		c0,2.484-2.014,4.498-4.499,4.498c-2.484,0-4.498-2.014-4.498-4.498c0-2.483,2.014-4.498,4.498-4.498
		c0.253,0,0.498,0.034,0.74,0.074L7.02,23.363c-0.076,0.265,0.078,0.542,0.343,0.617L7.5,24c0.217,0,0.417-0.143,0.48-0.363
		l1.226-4.291C10.845,20.018,12.001,21.624,12.001,23.505 M23.719,23h-3.672c0.161-1.419,0.969-2.631,2.135-3.335L23.719,23z
		 M16.406,22.629L10.662,16h9.36L16.406,22.629z M17.342,23l3.456-6.336l0.957,2.077c-1.507,0.872-2.561,2.437-2.724,4.26L17.342,23
		L17.342,23z M24.494,28.003c-2.313,0-4.198-1.755-4.448-4.003H24.5c0.17,0,0.329-0.087,0.421-0.23
		c0.093-0.144,0.104-0.323,0.033-0.479l-1.861-4.039c0.443-0.146,0.909-0.245,1.401-0.245c2.483,0,4.499,2.015,4.499,4.498
		C28.993,25.989,26.979,28.003,24.494,28.003"/>
</g>
</svg>
